<svg width="32" height="32" viewBox="0 0 32 32" fill="none" xmlns="http://www.w3.org/2000/svg">
<path d="M6.50049 24.6669C5.88174 24.6669 5.35224 24.4549 4.91199 24.031C4.47099 23.6063 4.25049 23.0961 4.25049 22.5002V9.50022C4.25049 8.90439 4.47099 8.3945 4.91199 7.97056C5.35224 7.54589 5.88174 7.33356 6.50049 7.33356H24.5005C25.1192 7.33356 25.6491 7.54589 26.0901 7.97056C26.5304 8.3945 26.7505 8.90439 26.7505 9.50022V22.5002C26.7505 23.0961 26.5304 23.6063 26.0901 24.031C25.6491 24.4549 25.1192 24.6669 24.5005 24.6669H6.50049ZM24.5005 11.6669L16.0911 16.7315C15.9974 16.7856 15.8987 16.8261 15.7952 16.8528C15.6925 16.8803 15.5942 16.894 15.5005 16.894C15.4067 16.894 15.3085 16.8803 15.2057 16.8528C15.1022 16.8261 15.0036 16.7856 14.9099 16.7315L6.50049 11.6669V22.5002H24.5005V11.6669ZM15.5005 14.9169L24.5005 9.50022H6.50049L15.5005 14.9169ZM6.50049 11.9377V10.3398V10.3669V10.3528V11.9377Z" fill="black"/>
</svg>
