<svg width="584" height="121" viewBox="0 0 584 121" fill="none" xmlns="http://www.w3.org/2000/svg">
<path d="M65.8563 92.9283C71.0913 87.6781 73.7088 81.3429 73.7088 73.9227C73.7088 66.5024 71.0913 60.1672 65.8563 54.917C60.6213 49.6668 54.3044 47.0417 46.9056 47.0417C39.5068 47.0417 33.1899 49.6668 27.9549 54.917C22.7199 60.1672 20.1024 66.5024 20.1024 73.9227C20.1024 81.3429 22.7199 87.6781 27.9549 92.9283C33.1899 98.1785 39.5068 100.804 46.9056 100.804C54.3044 100.804 60.6213 98.1785 65.8563 92.9283ZM20.1024 35.1763C27.8502 29.6461 36.7846 26.881 46.9056 26.881C59.8884 26.881 70.9517 31.4661 80.0955 40.6365C89.2393 49.8068 93.8112 60.9022 93.8112 73.9227C93.8112 86.9431 89.2393 98.0385 80.0955 107.209C70.9517 116.379 59.8884 120.964 46.9056 120.964C33.9228 120.964 22.8595 116.379 13.7157 107.209C4.5719 98.0385 0 86.9431 0 73.9227V0H20.1024V35.1763Z" fill="black"/>
<path d="M168.459 92.9283C173.694 87.6781 176.311 81.3429 176.311 73.9227C176.311 66.5024 173.694 60.1672 168.459 54.917C163.224 49.6668 156.907 47.0417 149.508 47.0417C142.109 47.0417 135.793 49.6668 130.558 54.917C125.323 60.1672 122.705 66.5024 122.705 73.9227C122.705 81.3429 125.323 87.6781 130.558 92.9283C135.793 98.1785 142.109 100.804 149.508 100.804C156.907 100.804 163.224 98.1785 168.459 92.9283ZM196.414 73.9227C196.414 86.9431 191.842 98.0385 182.698 107.209C173.554 116.379 162.491 120.964 149.508 120.964C136.525 120.964 125.462 116.379 116.318 107.209C107.175 98.0385 102.603 86.9431 102.603 73.9227C102.603 60.9022 107.175 49.8068 116.318 40.6365C125.462 31.4661 136.525 26.881 149.508 26.881C159.629 26.881 168.564 29.6461 176.311 35.1763V26.881H196.414V73.9227Z" fill="black"/>
<path d="M271.062 92.9283C276.297 87.6781 278.914 81.3429 278.914 73.9227C278.914 66.5024 276.297 60.1672 271.062 54.917C265.827 49.6668 259.51 47.0417 252.111 47.0417C244.712 47.0417 238.395 49.6668 233.16 54.917C227.925 60.1672 225.308 66.5024 225.308 73.9227C225.308 81.3429 227.925 87.6781 233.16 92.9283C238.395 98.1785 244.712 100.804 252.111 100.804C259.51 100.804 265.827 98.1785 271.062 92.9283ZM299.017 73.9227C299.017 86.9431 294.445 98.0385 285.301 107.209C276.157 116.379 265.094 120.964 252.111 120.964C239.128 120.964 228.065 116.379 218.921 107.209C209.777 98.0385 205.205 86.9431 205.205 73.9227C205.205 60.9022 209.777 49.8068 218.921 40.6365C228.065 31.4661 239.128 26.881 252.111 26.881C262.232 26.881 271.166 29.6461 278.914 35.1763V26.881H299.017V73.9227Z" fill="black"/>
<path d="M373.664 92.9283C378.899 87.6781 381.517 81.3429 381.517 73.9227C381.517 66.5024 378.899 60.1672 373.664 54.917C368.429 49.6668 362.112 47.0417 354.714 47.0417C347.315 47.0417 340.998 49.6668 335.763 54.917C330.528 60.1672 327.91 66.5024 327.91 73.9227C327.91 81.3429 330.528 87.6781 335.763 92.9283C340.998 98.1785 347.315 100.804 354.714 100.804C362.112 100.804 368.429 98.1785 373.664 92.9283ZM401.619 73.9227C401.619 86.9431 397.047 98.0385 387.904 107.209C378.76 116.379 367.696 120.964 354.714 120.964C341.731 120.964 330.668 116.379 321.524 107.209C312.38 98.0385 307.808 86.9431 307.808 73.9227C307.808 60.9022 312.38 49.8068 321.524 40.6365C330.668 31.4661 341.731 26.881 354.714 26.881C364.835 26.881 373.769 29.6461 381.517 35.1763V26.881H401.619V73.9227Z" fill="black"/>
<path d="M430.513 73.9227C430.513 66.5024 433.131 60.1672 438.366 54.917C443.601 49.6668 449.917 47.0417 457.316 47.0417C464.715 47.0417 471.032 49.6668 476.267 54.917C481.502 60.1672 484.12 66.5024 484.12 73.9227V120.964H504.222V73.9227C504.222 60.9022 499.65 49.8068 490.506 40.6365C481.362 31.4661 470.299 26.881 457.316 26.881C447.195 26.881 438.261 29.6461 430.513 35.1763V0H410.411V120.964H430.513V73.9227Z" fill="black"/>
<path d="M539.817 26.881H580.021V47.0417H542.853C535.733 47.1117 532.278 48.5117 532.488 51.2418C532.488 55.302 539.921 59.1871 554.789 62.8973C565.677 65.6274 573.251 69.0225 577.509 73.0826C581.836 77.1428 584 82.988 584 90.6183C584 100.629 581.103 108.189 575.31 113.299C569.516 118.409 561.036 120.964 549.868 120.964H513.013L512.909 100.804H549.344C558.139 100.454 562.711 98.1435 563.06 93.8734C563.06 90.2332 560.198 87.6781 554.475 86.2081C535.14 81.3779 523.379 76.5827 519.191 71.8226C515.072 66.9924 513.013 61.1822 513.013 54.392C513.013 35.9113 521.948 26.741 539.817 26.881Z" fill="black"/>
</svg>
