<svg width="32" height="32" viewBox="0 0 32 32" fill="none" xmlns="http://www.w3.org/2000/svg">
<path d="M31.9309 18.0563C31.9309 20.8063 29.6996 23.0375 26.9496 23.0375H24.9559C24.4059 23.0375 23.9621 22.5937 23.9621 22.0437C23.9621 21.4937 24.4059 21.05 24.9559 21.05H26.9496C28.5996 21.05 29.9371 19.7125 29.9371 18.0625C29.9371 16.4125 28.5996 15.075 26.9496 15.075H26.9371C25.6434 15.075 24.5371 14.25 24.1246 13.1C24.1246 13.0938 24.1121 13.0875 24.1121 13.075C23.3371 10.8938 21.3308 9.29378 18.9246 9.11878C18.4058 9.15003 17.9933 9.58125 17.9933 10.1062V22.0375C17.9933 22.5875 17.5496 23.0313 16.9996 23.0313C16.4496 23.0313 16.0058 22.5875 16.0058 22.0375V10.1062C16.0058 8.46875 17.3246 7.14372 18.9558 7.125C22.2058 7.3125 24.9308 9.44375 25.9808 12.3813C25.9871 12.3875 25.9933 12.3938 25.9996 12.3938C26.1309 12.7938 26.5059 13.0813 26.9434 13.0813H26.9559C27.0121 13.0813 27.0684 13.0875 27.1184 13.0875H27.1496C29.8059 13.1938 31.9309 15.375 31.9309 18.0563ZM13.0121 23.0375C12.4621 23.0375 12.0184 22.5937 12.0184 22.0437V11.0875C12.0184 10.5375 12.4621 10.0938 13.0121 10.0938C13.5621 10.0938 14.0059 10.5375 14.0059 11.0875V22.0437C14.0059 22.5875 13.5621 23.0375 13.0121 23.0375ZM9.02464 23.0375C8.47464 23.0375 8.03089 22.5937 8.03089 22.0437V10.5875C8.03089 10.0375 8.47464 9.59372 9.02464 9.59372C9.57464 9.59372 10.0184 10.0375 10.0184 10.5875V22.0375C10.0246 22.5874 9.57464 23.0375 9.02464 23.0375ZM5.04336 23.0374C4.49336 23.0374 4.04961 22.5937 4.04961 22.0437V14.0749C4.04961 13.5249 4.49336 13.0812 5.04336 13.0812C5.59336 13.0812 6.03711 13.5249 6.03711 14.0749V22.0437C6.03711 22.5874 5.59336 23.0374 5.04336 23.0374ZM1.06211 21.0437C0.512109 21.0437 0.0683594 20.5999 0.0683594 20.0499V16.0687C0.0683594 15.5187 0.512109 15.0749 1.06211 15.0749C1.61211 15.0749 2.05586 15.5187 2.05586 16.0687V20.0499C2.05586 20.5999 1.61211 21.0437 1.06211 21.0437ZM20.9746 21.0437C21.5246 21.0437 21.9684 21.4874 21.9684 22.0374C21.9684 22.5874 21.5246 23.0312 20.9746 23.0312C20.4246 23.0312 19.9809 22.5874 19.9809 22.0374C19.9809 21.4874 20.4246 21.0437 20.9746 21.0437Z" fill="black"/>
</svg>
